# Blender v2.83.2 OBJ File: ''
# www.blender.org
mtllib Skybox.mtl
o Skybox_Cube
v -13.323672 -13.323671 -13.323673
v -13.323672 -13.323673 13.323671
v -13.323672 13.323673 -13.323671
v -13.323672 13.323671 13.323673
v 13.323672 -13.323671 -13.323673
v 13.323672 -13.323673 13.323671
v 13.323672 13.323673 -13.323671
v 13.323672 13.323671 13.323673
vt 0.738259 0.341789
vt 0.738259 0.665222
vt 0.980834 0.665222
vt 0.980834 0.341789
vt 0.495685 0.988655
vt 0.495685 0.665222
vt 0.253110 0.665222
vt 0.253110 0.988655
vt 0.495685 0.341789
vt 0.253110 0.341789
vt 0.495685 0.018356
vt 0.253110 0.018356
vt 0.010535 0.341789
vt 0.010535 0.665222
vn 1.0000 0.0000 0.0000
vn 0.0000 -1.0000 -0.0000
vn -1.0000 0.0000 0.0000
vn 0.0000 1.0000 0.0000
vn 0.0000 -0.0000 1.0000
vn 0.0000 0.0000 -1.0000
usemtl Skybox
s off
f 1/1/1 3/2/1 4/3/1 2/4/1
f 3/5/2 7/6/2 8/7/2 4/8/2
f 7/6/3 5/9/3 6/10/3 8/7/3
f 5/9/4 1/11/4 2/12/4 6/10/4
f 3/2/5 1/1/5 5/9/5 7/6/5
f 8/7/6 6/10/6 2/13/6 4/14/6
